PathFileType	4	(X/Y/Z)	G:\Shared drives\HPL_Drive\Nord Sprinting Study\Kristen_Nord_test\Trimmed_Nord000006.trc
DataRate	CameraRate	NumFrames	NumMarkers	Units	OrigDataRate	OrigDataStartFrame	OrigNumFrames
200.00	200.00	      4	52	mm	200.00	1	      2043
Frame#	Time	C7			R_Shoulder			L_Shoulder			Sternum			R_humerus			R_elbow_med			R_elbow_lat			R_forearm			R_wrist_radius			R_wrist_ulna			L_humerus			L_elbow_med			L_elbow_lat			L_forearm			L_wrist_radius			L_wrist_ulna			r.ASIS			r.PSIS			r_IC			L.ASIS			L.PSIS			l_IC			r_thigh1			r_thigh2			r_thigh3			r_thigh4			r_thigh5			r_knee			r_mknee			r_shank_antsup			r_sh2			r_sh3			r_sh4			r_ankle			r_mankle			r_calc			r_5meta			r_toe			L_thigh1			L_thigh2			L_thigh3			L_thigh4			L_knee			L_mknee			L_shank_antsup			L_sh2			L_sh3			L_ankle			L_mankle			L_calc			L_5meta			L_toe			
		X1	Y1	Z1	X2	Y2	Z2	X3	Y3	Z3	X4	Y4	Z4	X5	Y5	Z5	X6	Y6	Z6	X7	Y7	Z7	X8	Y8	Z8	X9	Y9	Z9	X10	Y10	Z10	X11	Y11	Z11	X12	Y12	Z12	X13	Y13	Z13	X14	Y14	Z14	X15	Y15	Z15	X16	Y16	Z16	X17	Y17	Z17	X18	Y18	Z18	X19	Y19	Z19	X20	Y20	Z20	X21	Y21	Z21	X22	Y22	Z22	X23	Y23	Z23	X24	Y24	Z24	X25	Y25	Z25	X26	Y26	Z26	X27	Y27	Z27	X28	Y28	Z28	X29	Y29	Z29	X30	Y30	Z30	X31	Y31	Z31	X32	Y32	Z32	X33	Y33	Z33	X34	Y34	Z34	X35	Y35	Z35	X36	Y36	Z36	X37	Y37	Z37	X38	Y38	Z38	X39	Y39	Z39	X40	Y40	Z40	X41	Y41	Z41	X42	Y42	Z42	X43	Y43	Z43	X44	Y44	Z44	X45	Y45	Z45	X46	Y46	Z46	X47	Y47	Z47	X48	Y48	Z48	X49	Y49	Z49	X50	Y50	Z50	X51	Y51	Z51	X52	Y52	Z52	

1	0.000	1226.20483	279.93134	1293.11182	1340.25830	329.65561	1298.14001	1094.02942	316.14017	1311.79089	1212.07214	408.44336	1248.52637	1516.41333	310.00830	1281.47290	1650.26904	350.14090	1208.40637	1647.77551	284.21445	1250.97400	1643.12122	343.02512	1367.26636	1612.41577	424.69769	1449.67273	1654.42017	405.45490	1462.35596	896.12415	270.14554	1296.22961	774.29254	298.04160	1226.26892	780.39752	232.11304	1264.75256	817.54150	303.26605	1390.25415	860.83862	367.50931	1454.55981	812.16827	363.88895	1468.81470	1334.73608	428.80179	789.62952	1291.50745	249.15158	855.12689	1374.01880	356.09064	874.00769	1093.95349	412.93854	786.41730	1175.01233	244.54596	848.53351	1069.93225	347.28479	862.31653	1396.07202	390.26791	530.60016	1393.04602	385.27155	415.35464	1406.79004	337.08170	389.06741	1404.08850	282.58469	537.57233	1389.91052	278.18594	419.05545	1391.30103	341.45026	312.61890	1262.85486	326.49835	315.80960	1412.65918	207.74358	290.63474	1393.47302	89.61894	285.97046	1406.73608	202.54643	365.47797	1389.47302	89.51692	367.92932	1375.05286	-81.07474	322.09781	1301.56604	-57.35279	283.89105	1319.82483	-115.33621	370.87787	1393.06372	-141.86798	210.39569	1355.88354	-110.13227	167.21973	1026.48120	386.25623	535.20764	1023.88928	385.50772	395.03568	1031.65857	265.54315	543.57117	1036.02271	273.59100	406.53180	1011.24548	319.16251	328.68106	1142.70300	329.37766	307.55441	997.05530	212.71228	294.26727	1008.39807	211.27649	384.59183	1020.61157	92.05799	373.55399	1026.17896	-83.07639	329.41653	1100.97986	-54.99692	286.17679	1086.49036	-99.96061	372.84906	1005.66553	-153.36504	215.51721	1043.90491	-122.98804	163.88216	
2	0.005	1226.23389	279.98743	1293.08496	1340.29370	329.70898	1298.16296	1094.02612	316.21475	1311.82825	1212.15283	408.52783	1248.56238	1516.46021	310.09158	1281.42859	1650.30554	350.30170	1208.30298	1647.82178	284.33032	1250.83325	1643.15100	343.09592	1367.15710	1612.38049	424.70117	1449.62622	1654.41809	405.49045	1462.27710	896.13519	270.25958	1296.18494	774.31458	298.16788	1226.23450	780.41827	232.24159	1264.63953	817.63458	303.38480	1390.23889	861.05200	367.66873	1454.39441	812.36993	364.00940	1468.66162	1334.69775	428.91110	789.61279	1291.44641	249.30589	855.13226	1373.98328	356.22809	874.01453	1093.91504	413.02048	786.43542	1175.00378	244.68733	848.50861	1069.92493	347.44629	862.33807	1396.07813	390.34320	530.61047	1393.02112	385.33838	415.37308	1406.77771	337.14047	389.08258	1404.15491	282.67886	537.60205	1389.66443	278.27393	419.10544	1391.27405	341.43253	312.59830	1262.86938	326.44540	315.85840	1412.60242	207.72989	290.62299	1393.46790	89.61047	285.97296	1406.77307	202.54175	365.53308	1389.44910	89.49061	367.95480	1375.04749	-81.09022	322.09897	1301.54150	-57.34157	283.99570	1319.82251	-115.33555	370.91129	1393.04163	-141.84070	210.41306	1355.76587	-109.99879	167.27266	1026.49011	386.35214	535.20416	1023.92023	385.54434	395.03586	1031.62927	265.63480	543.60370	1036.01538	273.60626	406.54703	1011.24109	319.16953	328.66922	1142.69910	329.38861	307.55997	997.04572	212.75845	294.17035	1008.37476	211.30852	384.58112	1020.55963	92.04214	373.51611	1026.14221	-83.05630	329.40652	1100.97620	-55.00457	286.15094	1086.45117	-100.00397	372.88522	1005.93573	-153.25395	215.93875	1043.87781	-122.98672	163.99997	
3	0.010	1226.27332	280.02557	1293.06140	1340.33936	329.77521	1298.15491	1094.05835	316.30777	1311.79858	1212.21143	408.61432	1248.64380	1516.42249	310.32828	1281.43054	1650.30249	350.44247	1208.19116	1647.87183	284.47562	1250.71716	1643.17334	343.17569	1367.04919	1612.37097	424.71844	1449.57068	1654.40503	405.55084	1462.21191	896.13104	270.34958	1296.11987	774.37506	298.29144	1226.13171	780.61469	232.30257	1264.48132	817.78662	303.49619	1390.05518	861.20978	367.80856	1454.25146	812.55475	364.14359	1468.54211	1334.69348	429.02151	789.58386	1291.40588	249.44344	855.16205	1373.97119	356.34930	873.99890	1093.93665	413.17749	786.39490	1175.02295	244.81888	848.56580	1069.90442	347.61325	862.34558	1396.06079	390.39423	530.61755	1392.97510	385.44995	415.35483	1406.79016	337.19858	389.07877	1404.14197	282.73862	537.64746	1389.75525	278.13644	419.23322	1391.30493	341.46594	312.57864	1262.87427	326.40903	315.89874	1412.61890	207.74431	290.66016	1393.45032	89.59166	285.99042	1406.76807	202.52026	365.56235	1389.42114	89.48185	367.97711	1375.03357	-81.06777	322.09000	1301.52979	-57.34414	283.96442	1319.74707	-115.33342	370.97537	1393.04541	-141.81071	210.50995	1355.87756	-110.08637	167.24297	1026.47412	386.41330	535.19360	1023.90771	385.52734	395.05450	1031.53796	265.72775	543.62689	1036.02356	273.68274	406.57843	1011.25598	319.15829	328.72220	1142.72949	329.37195	307.56180	997.02679	212.76472	294.16928	1008.49554	211.48164	384.35629	1020.49072	92.07067	373.51852	1026.11975	-83.05270	329.44113	1100.92896	-55.01321	286.21127	1086.38550	-100.02241	372.89191	1005.92834	-153.24538	215.96941	1043.88599	-122.98557	163.98277	
4	0.015	1226.30286	280.09338	1293.05212	1340.37036	329.84836	1298.14832	1094.09119	316.41266	1311.82141	1212.17249	408.65265	1248.67297	1516.56506	310.28061	1281.29663	1650.41003	350.50247	1207.96838	1647.87561	284.57422	1250.66895	1643.17175	343.27240	1366.99304	1612.32104	424.73239	1449.53040	1654.37646	405.59534	1462.13147	896.14374	270.48718	1296.08325	773.64685	298.43890	1225.92468	780.44061	232.52098	1264.51587	817.89453	303.62454	1389.99365	861.47858	367.89798	1454.08496	812.76398	364.26620	1468.41467	1334.63879	429.14276	789.54895	1291.38684	249.60057	855.19318	1373.93481	356.49207	873.97626	1093.92395	413.26810	786.42950	1174.99207	244.95387	848.59363	1069.89368	347.76703	862.35541	1396.07031	390.47168	530.60175	1392.99707	385.45679	415.35608	1406.79077	337.23318	389.10815	1404.15857	282.82581	537.65192	1389.66016	278.36884	419.14029	1391.29907	341.48279	312.61566	1262.88464	326.36591	315.91119	1412.61414	207.71913	290.66110	1393.42712	89.59136	286.02255	1406.77014	202.51988	365.63281	1389.40515	89.48837	367.99496	1374.97949	-81.03893	322.19440	1301.51807	-57.34438	284.04739	1319.75977	-115.33137	370.99744	1393.00183	-141.80974	210.50919	1355.88232	-110.07246	167.23825	1026.48706	386.48358	535.14764	1023.94934	385.59451	395.06839	1031.53735	265.80923	543.65100	1035.98828	273.73309	406.55176	1011.26849	319.17834	328.70151	1142.70618	329.33899	307.56827	997.04291	212.68639	294.22650	1008.44269	211.52470	384.33380	1020.48419	92.02679	373.55380	1026.06616	-83.07175	329.46637	1100.94397	-55.00776	286.24316	1086.30188	-100.04137	373.02060	1005.91547	-153.21234	215.96254	1043.89246	-122.98469	164.06749	
